# xmcd
#
# Track frame offsets:
#	150
#	16568
#	44068
#	61571
#	81374
#	106023
#	132609
#	150045
#	170841
#	190628
#	215505
#	235206
#	258865
#	294415
#	315489
#
# Disc length: 4484 seconds
#
# Revision: 0
# Processed by: cddbd v1.4PL0 Copyright (c) Steve Scherf et al.
# Submitted via: dBpowerAMP V4.0
#
DISCID=bd11820f
DTITLE=Keith Caton and the Accelerators - Long Time Comin'
DYEAR=1998
DGENRE=Blues
TTITLE0=Beg, Borrow, and Steal
TTITLE1=I Wanna Know
TTITLE2=A Few Steps Further
TTITLE3=Playin' On Me
TTITLE4=Don't Start The Fire
TTITLE5=Blues Stalker
TTITLE6=Taxman
TTITLE7=Long Time Comin'
TTITLE8=Same Ol' Thing
TTITLE9=My Sweet Baby
TTITLE10=Sure Is
TTITLE11=Southbound
TTITLE12=Keith's Blues
TTITLE13=Bad Love
TTITLE14=Hail Elmore
EXTD=Keith Cator: Guitar, vocals\nBo Diddley: Guitar, vocals track 11\nRock Bottom: Harp tracks 1,2,3,4,7,8,15\nSkip Olenick: Harp tracks 6,11,12,13,14\nTom DeRosa: Bass, vocals tracks 3,7\nChris Chilton: Drums, vocals track 9\nJ.B. Browning: Drums trac
EXTD=ks 6,13,14\nJohn Monroe: Piano track 9, Bass and Drums track 12\nwww.accelerators.org
EXTT0=
EXTT1=
EXTT2=
EXTT3=
EXTT4=
EXTT5=
EXTT6=
EXTT7=
EXTT8=
EXTT9=
EXTT10=
EXTT11=
EXTT12=
EXTT13=
EXTT14=
PLAYORDER=
